<?xml version="1.0" encoding="UTF-8" standalone="no"?>
<!DOCTYPE svg PUBLIC "-//W3C//DTD SVG 1.1//EN" "http://www.w3.org/Graphics/SVG/1.1/DTD/svg11.dtd">
<svg width="100%" height="100%" viewBox="0 0 605 380" version="1.1" xmlns="http://www.w3.org/2000/svg" xmlns:xlink="http://www.w3.org/1999/xlink" xml:space="preserve" xmlns:serif="http://www.serif.com/" style="fill-rule:evenodd;clip-rule:evenodd;stroke-linejoin:round;stroke-miterlimit:2;">
    <g transform="matrix(1,0,0,1,-1878.61,-93.9601)">
        <g transform="matrix(1,0,0,1,1784.24,0)">
            <g transform="matrix(1,0,0,1,241.404,454.06)">
                <path d="M0,-340.142C10.697,-294.052 21.395,-247.962 32.092,-201.872C4.527,-221.13 -24.22,-238.612 -53.957,-254.288C-54.122,-260.879 -54.303,-267.47 -54.51,-274.061C-54.761,-282.04 -55.057,-290.017 -55.375,-297.994C-35.878,-310.623 -17.252,-324.55 0,-340.142M97.471,-121.272C78.929,-132.296 59.739,-142.354 40.902,-152.865C37.327,-154.86 33.641,-152.894 32.273,-149.355C27.2,-136.232 22.127,-123.109 17.054,-109.986C14.326,-102.93 25.681,-99.874 28.382,-106.863C32.573,-117.703 36.763,-128.543 40.954,-139.383C54.083,-132.057 67.212,-124.731 80.341,-117.405C83.875,-115.433 87.45,-113.519 90.946,-111.479C93.347,-110.078 96.747,-108.342 97.157,-105.268C98.005,-98.915 89.133,-93.444 85.008,-90.13C59.572,-69.699 35.764,-47.328 13.108,-23.87C10.736,-21.414 1.838,-10.299 -1.082,-16.853C-3.476,-22.227 -4.048,-29.04 -5.36,-34.76C-8.417,-48.09 -11.483,-61.417 -14.552,-74.744C-21.213,-103.671 -27.892,-132.594 -34.564,-161.519C-40.621,-187.78 -46.67,-214.042 -52.693,-240.311C-21.125,-223.269 9.301,-204.177 38.343,-183.059C42.763,-179.845 48.03,-185.134 46.972,-189.693C34.347,-244.09 21.721,-298.487 9.096,-352.884C8.068,-357.313 2.351,-358.414 -0.722,-355.476C-17.788,-339.162 -36.388,-324.717 -55.951,-311.662C-56.586,-325.822 -57.325,-339.977 -58.189,-354.125C-58.443,-358.279 -63.085,-361.827 -67.028,-359.197C-85.297,-347.016 -105.659,-339.409 -127.096,-334.957C-134.494,-333.421 -131.363,-322.094 -123.973,-323.628C-104.817,-327.606 -86.256,-334.147 -69.351,-343.936C-68.597,-330.71 -67.941,-317.481 -67.385,-304.248C-80.801,-295.809 -94.602,-287.959 -108.635,-280.579C-115.329,-277.058 -109.397,-266.914 -102.705,-270.434C-90.554,-276.826 -78.571,-283.576 -66.856,-290.752C-66.48,-280.651 -66.154,-270.548 -65.88,-260.444C-70.276,-262.671 -74.687,-264.869 -79.124,-267.019C-85.899,-270.301 -91.863,-260.174 -85.053,-256.874C-78.792,-253.841 -72.576,-250.721 -66.397,-247.534C-66.087,-246.18 -65.775,-244.827 -65.465,-243.473C-64.2,-185.311 -64.475,-127.11 -65.507,-68.947C-65.755,-54.965 -66.048,-40.984 -66.373,-27.003C-76.62,-56.154 -91.99,-83.249 -113.366,-106.059C-108.955,-111.667 -105.103,-117.711 -101.193,-123.667C-97.032,-130.005 -107.2,-135.898 -111.337,-129.596C-115.657,-123.016 -119.816,-116.217 -125.041,-110.3C-131,-103.551 -138.08,-97.852 -145.04,-92.184C-150.905,-87.408 -142.549,-79.14 -136.733,-83.877C-131.452,-88.178 -126.11,-92.504 -121.232,-97.285C-92.227,-66.058 -75.324,-26.591 -67.185,15.001C-65.877,21.685 -55.82,19.858 -55.647,13.439C-53.822,-54.022 -52.517,-121.525 -52.952,-189.014C-43.399,-147.54 -33.81,-106.075 -24.263,-64.599C-20.868,-49.849 -17.478,-35.099 -14.101,-20.345C-12.622,-13.884 -10.901,-6.917 -4.17,-4.072C2.6,-1.211 9.789,-4.634 14.977,-9.069C21.55,-14.688 27.248,-21.611 33.368,-27.73C39.771,-34.131 46.268,-40.437 52.874,-46.629C66.144,-59.068 79.852,-71.041 94.05,-82.412C100.685,-87.725 107.629,-93.673 108.715,-102.67C109.74,-111.148 104.314,-117.204 97.471,-121.272" style="fill:white;fill-rule:nonzero;"/>
            </g>
        </g>
        <g transform="matrix(1,0,0,1,1784.24,0)">
            <g transform="matrix(1,0,0,1,374.862,116.773)">
                <path d="M0,143.657C-7.01,144.463 -14.021,145.269 -21.031,146.075C-30.941,147.215 -41.251,149.334 -51.235,149.3C-53.841,149.291 -55.982,148.728 -57.773,147.745C-51.299,111.322 -47.882,74.451 -42.902,37.809C-35.422,75.382 -20.904,111.43 0,143.657M-97.883,-5.343C-81.522,-4.019 -65.319,-1.221 -49.133,1.506C-56.664,44.621 -60.029,88.346 -66.897,131.556C-68.936,123.915 -70.375,116.057 -72.117,108.37C-80.705,70.465 -89.294,32.561 -97.883,-5.343M-87.752,92.486C-84.215,108.094 -81.635,124.346 -76.809,139.611C-75.021,145.266 -72.381,150.105 -68.827,153.745C-68.389,154.329 -67.851,154.829 -67.249,155.23C-62.527,159.3 -56.387,161.449 -48.687,160.93C-29.041,159.607 -9.358,156.481 10.206,154.232C14.194,153.773 18.092,149.448 15.278,145.393C-15.115,101.585 -33.236,49.968 -36.47,-3.282C-36.48,-3.45 -36.523,-3.603 -36.547,-3.765C-36.417,-6.151 -37.669,-8.428 -40.783,-8.946C-62.189,-12.508 -83.635,-16.477 -105.345,-17.588C-109.327,-17.792 -111.81,-13.685 -111.009,-10.153C-103.257,24.06 -95.504,58.273 -87.752,92.486" style="fill:white;fill-rule:nonzero;"/>
            </g>
        </g>
        <g transform="matrix(1,0,0,1,1784.24,0)">
            <g transform="matrix(1,0,0,1,445.542,185.667)">
                <path d="M0,9.169C7.615,22.918 16.19,36.134 25.657,48.68C27.987,51.767 30.361,54.824 32.784,57.839C34.544,60.03 38.847,64.287 38.527,67.477C38.262,70.127 34.915,70.558 32.763,71.032C28.373,71.999 23.89,72.651 19.466,73.441C1.916,76.577 -15.634,79.713 -33.184,82.849C-29.536,40.764 -27.256,-1.34 -24.896,-43.516C-24.838,-44.567 -24.767,-45.616 -24.707,-46.667C-18.14,-27.375 -9.876,-8.662 0,9.169M-41.595,42.349C-47.734,5.113 -53.872,-32.124 -60.011,-69.36C-51.512,-69.965 -43.092,-71.508 -34.751,-73.308C-37.35,-35.204 -38.711,2.971 -41.498,41.063C-41.529,41.492 -41.564,41.92 -41.595,42.349M-45.553,90.183C-45.736,93.385 -43.624,95.158 -41.133,95.51C-40.12,95.75 -39.059,95.786 -38.108,95.616C-18.824,92.17 0.46,88.724 19.744,85.278C27.437,83.903 37.152,83.663 43.891,79.259C50.401,75.004 51.522,67.15 48.526,60.382C45.198,52.865 38.639,46.619 33.787,40.052C28.617,33.054 23.721,25.855 19.112,18.476C10.193,4.195 2.335,-10.758 -4.348,-26.213C-12.167,-44.295 -18.218,-63.132 -22.705,-82.305C-23.361,-85.103 -25.373,-86.383 -27.536,-86.495C-28.271,-86.617 -29.071,-86.604 -29.931,-86.408C-42.091,-83.635 -54.326,-80.907 -66.855,-80.832C-70.988,-80.807 -73.133,-77.117 -72.52,-73.396C-63.531,-18.87 -54.542,35.656 -45.553,90.183" style="fill:white;fill-rule:nonzero;"/>
            </g>
        </g>
        <g transform="matrix(1,0,0,1,1784.24,0)">
            <g transform="matrix(1,0,0,1,467.63,246.703)">
                <path d="M0,-101.406C0.589,-93.919 12.342,-93.855 11.748,-101.406C11.065,-110.094 10.381,-118.782 9.697,-127.469C23.677,-123.93 37.985,-121.934 52.336,-121.481C54.187,-74.372 56.038,-27.264 57.889,19.845C48.036,21.834 38.269,24.265 28.617,27.14C21.389,29.292 24.467,40.634 31.741,38.468C56.549,31.081 82.025,26.639 107.878,25.312C115.401,24.926 115.447,13.175 107.878,13.564C95.023,14.224 82.228,15.61 69.553,17.71C67.731,-28.679 65.908,-75.067 64.085,-121.456C78.902,-121.858 93.681,-123.898 108.106,-127.588C108.373,-115.682 108.64,-103.775 108.907,-91.868C109.076,-84.32 120.825,-84.293 120.655,-91.868C120.331,-106.331 120.006,-120.794 119.682,-135.256C119.598,-138.992 115.986,-142.031 112.246,-140.921C77.149,-130.5 39.844,-130.534 4.764,-141.012C1.324,-142.04 -2.97,-139.146 -2.671,-135.348C-1.781,-124.034 -0.89,-112.72 0,-101.406" style="fill:white;fill-rule:nonzero;"/>
            </g>
        </g>
        <g transform="matrix(1,0,0,1,1784.24,0)">
            <g transform="matrix(1,0,0,1,688.502,419.991)">
                <path d="M0,-264.798C-4.707,-260.387 -8.941,-255.519 -12.678,-250.308C-33.371,-256.316 -49.781,-274.914 -52.125,-296.558C-52.772,-302.534 -62.438,-305.223 -63.663,-298.12C-70.654,-257.58 -85.707,-218.975 -108.071,-184.445C-109.399,-182.395 -109.036,-178.967 -107.153,-177.327C-82.698,-156.029 -62.707,-130.148 -48.222,-101.132C-40.939,-86.543 -35.166,-71.239 -30.94,-55.491C-28.832,-47.632 -27.102,-39.665 -25.798,-31.632C-24.385,-22.917 -24.338,-15.833 -31.815,-10.104C-47.375,1.819 -64.017,12.574 -80.251,23.651C-93.006,-21.039 -123.753,-59.992 -164.349,-82.67C-157.105,-92.323 -150.785,-102.672 -145.533,-113.579C-142.267,-120.36 -152.394,-126.326 -155.677,-119.509C-166.727,-96.562 -182.361,-76.464 -201.88,-60.102C-207.681,-55.239 -199.333,-46.966 -193.573,-51.795C-185.72,-58.378 -178.444,-65.606 -171.802,-73.368C-130.563,-50.826 -100.198,-11.062 -89.488,34.783C-88.672,38.275 -83.925,40.425 -80.859,38.294C-63.165,25.992 -45.393,13.795 -27.775,1.385C-20.23,-3.93 -14.431,-9.872 -13.403,-19.454C-12.48,-28.059 -14.727,-37.207 -16.495,-45.595C-23.736,-79.948 -38.345,-112.91 -58.785,-141.443C-69.508,-156.412 -81.747,-170.194 -95.395,-182.536C-77.864,-210.532 -64.838,-241.222 -56.91,-273.255C-49.132,-257.939 -35.702,-245.717 -19.139,-240.016C-24.672,-229.867 -28.436,-218.763 -30.063,-207.221C-31.106,-199.827 -19.787,-196.631 -18.734,-204.098C-15.891,-224.268 -6.571,-242.548 8.307,-256.491C13.836,-261.672 5.516,-269.967 0,-264.798" style="fill:white;fill-rule:nonzero;"/>
            </g>
        </g>
    </g>
</svg>
